<mxfile host="app.diagrams.net" modified="2023-12-19T08:07:05.756Z" agent="Mozilla/5.0 (Windows NT 10.0; Win64; x64) AppleWebKit/537.36 (KHTML, like Gecko) Chrome/120.0.0.0 Safari/537.36" version="22.1.11" etag="8ElVymPWkc7eVdqDuE-J" type="github">
  <diagram name="Strona-1" id="KciXNImmKgs5rosuy03C">
    <mxGraphModel>
      <root>
        <mxCell id="0" />
        <mxCell id="1" parent="0" />
      </root>
    </mxGraphModel>
  </diagram>
</mxfile>
